<svg width="128" height="128" viewBox="0 0 128 128" fill="none" xmlns="http://www.w3.org/2000/svg">
<path d="M55.5283 23.9911C55.9843 21.1244 59.9645 21.1244 60.4204 23.9911L65.1646 53.8192C65.3373 54.9052 66.1591 55.7563 67.2077 55.9352L96.0097 60.8483C98.7778 61.3205 98.7778 65.4425 96.0097 65.9147L67.2077 70.8279C66.1591 71.0067 65.3373 71.8579 65.1646 72.9438L60.4204 102.772C59.9645 105.639 55.9843 105.639 55.5283 102.772L50.7842 72.9438C50.6115 71.8579 49.7896 71.0067 48.741 70.8279L19.9391 65.9147C17.1709 65.4425 17.1709 61.3205 19.9391 60.8483L48.741 55.9352C49.7896 55.7563 50.6115 54.9052 50.7842 53.8192L55.5283 23.9911Z" fill="white"/>
<path d="M18.7543 0C24.0312 0 28.6425 1.08313 32.5883 3.24939C36.5341 5.41564 39.5766 8.4681 41.7159 12.4068C43.9027 16.2962 44.9961 20.801 44.9961 25.9212C44.9961 30.9923 43.9027 35.4971 41.7159 39.4357C39.5766 43.3744 36.5103 46.4268 32.517 48.5931C28.5712 50.7594 23.9837 51.8425 18.7543 51.8425H0V0H18.7543ZM17.9699 40.9127C22.5812 40.9127 26.1705 39.6081 28.7376 36.9987C31.3047 34.3894 32.5883 30.6969 32.5883 25.9212C32.5883 21.1456 31.3047 17.4285 28.7376 14.7699C26.1705 12.1114 22.5812 10.7821 17.9699 10.7821H12.1939V40.9127H17.9699Z" fill="white"/>
<path d="M128 76.1575V128H115.806V96.9093L104.611 128H94.7699L83.5031 96.8354V128H71.3092V76.1575H85.7136L99.7616 112.048L113.667 76.1575H128Z" fill="white"/>
</svg>
